# xmcd
#
# Track frame offsets:
# 150
# 20532
# 44517
# 61465
# 82029
# 92695
# 115400
# 119415
# 165065
# 194382
# 218725
# 234915
# 255732
#
# Disc length: 3467 seconds
#
#
# Revision: 4
# Processed by: cddbd v1.5.2PL0 Copyright (c) Steve Scherf et al.
# Submitted via: FreeRIP 2.951 
#
DISCID=ab0d890d
DTITLE=Muddy Waters - The Lost Tapes  Muddy Wates Live 1971
DYEAR=1971
DGENRE=Blues
TTITLE0=Interview with Muddy
TTITLE1=Honey Bee
TTITLE2=Hoochie Coochie Man
TTITLE3=Walking Through The Park
TTITLE4=Trouble No More
TTITLE5=Just to Be With You
TTITLE6=Introduction
TTITLE7=19 Years Old
TTITLE8=Long Distance Call
TTITLE9=Manish Boy
TTITLE10=Crawlin' King Snake
TTITLE11=Got My Mojo Working
TTITLE12=Hold It
EXTD=
EXTT0=
EXTT1=
EXTT2=
EXTT3=
EXTT4=
EXTT5=
EXTT6=
EXTT7=
EXTT8=
EXTT9=
EXTT10=
EXTT11=
EXTT12=
PLAYORDER=
